<?xml version="1.0" encoding="UTF-8"?>
<svg width="64px" height="64px" viewBox="0 0 64 64" version="1.1" xmlns="http://www.w3.org/2000/svg" xmlns:xlink="http://www.w3.org/1999/xlink">
    <title>bluesky_icon</title>
    <g id="Page-1" stroke="none" stroke-width="1" fill="none" fill-rule="evenodd">
        <g id="bluesky_icon" transform="translate(0.000000, -0.000000)" fill="#FFFFFF" fill-rule="nonzero">
            <path d="M32,0 C49.66125,0 64,14.33875 64,32 C64,49.66125 49.66125,64 32,64 C14.33875,64 0,49.66125 0,32 C0,14.33875 14.33875,0 32,0 Z M22.80347,18.2044 C18.84971,15.413166 17.3414,15.896793 16.3526,16.343594 C15.208093,16.860755 15,18.61785 15,19.65164 C15,20.16853 15.141687,22.28742 15.3295825,24.4323625 L15.3295825,24.4323625 L15.3937948,25.1461464 C15.5688928,27.0406138 15.7721191,28.8173111 15.936416,29.3694 C17.1318718,33.3864723 21.3224169,34.8004528 25.2543684,34.4415141 L25.2543684,34.4415141 L25.5104,34.4156 L25.3233486,34.4437733 C19.532517,35.3308213 14.5030965,37.5042543 21.26582,45.033 C28.7848,52.818 31.5705,43.3637 33,38.5702 C33.11436,38.95368 33.2301088,39.3648074 33.3506563,39.7928929 L33.3506563,39.7928929 L33.44202,40.1169696 C33.518995,40.3894049 33.5981775,40.6674206 33.6804,40.948407 L33.6804,40.948407 L33.7805795,41.2868497 C33.8445557,41.5003449 33.9104522,41.7149371 33.9786268,41.9295053 L34.0826418,42.2511994 C34.1531838,42.4654632 34.2261827,42.6791425 34.301996,42.891116 L34.4178715,43.2076569 C35.9134977,47.1974203 38.4897002,50.3690662 44.5995,45.033 C50.9280843,38.6428157 46.4609205,35.3592259 40.6869328,34.446015 L40.6869328,34.446015 L40.4896,34.4158 L40.7456333,34.4417202 C44.6776101,34.8007486 48.8680894,33.3866745 50.0636,29.3697 C50.4333,28.1275 51,20.68568 51,19.6519 C51,18.61811 50.7919,16.861012 49.6474,16.343851 C48.6586,15.897051 47.1503,15.413424 43.1965,18.20466 C39.0692,21.11843 34.6301,27.0262 33,30.1964 C31.3699,27.0262 26.9308,21.11817 22.80347,18.2044 Z" id="Shape"></path>
        </g>
    </g>
</svg>