<?xml version="1.0" encoding="UTF-8"?>
<svg width="18px" height="18px" viewBox="0 0 18 18" version="1.1" xmlns="http://www.w3.org/2000/svg" xmlns:xlink="http://www.w3.org/1999/xlink">
    <title>Artboard</title>
    <g id="Artboard" stroke="none" stroke-width="1" fill="none" fill-rule="evenodd">
        <g id="search_icon" transform="translate(3.000000, 3.000000)" fill="#193E72" fill-rule="nonzero">
            <g id="xmark-solid">
                <path d="M11.644854,2.04935187 C12.1133844,1.58082149 12.1133844,0.819928159 11.644854,0.351397782 C11.1763236,-0.117132594 10.4154303,-0.117132594 9.94689989,0.351397782 L6,4.30204592 L2.04935187,0.355146025 C1.58082149,-0.113384351 0.819928159,-0.113384351 0.351397782,0.355146025 C-0.117132594,0.823676402 -0.117132594,1.58456973 0.351397782,2.05310011 L4.30204592,6 L0.355146025,9.95064813 C-0.113384351,10.4191785 -0.113384351,11.1800718 0.355146025,11.6486022 C0.823676402,12.1171326 1.58456973,12.1171326 2.05310011,11.6486022 L6,7.69795408 L9.95064813,11.644854 C10.4191785,12.1133844 11.1800718,12.1133844 11.6486022,11.644854 C12.1171326,11.1763236 12.1171326,10.4154303 11.6486022,9.94689989 L7.69795408,6 L11.644854,2.04935187 Z" id="Path"></path>
            </g>
        </g>
    </g>
</svg>