<?xml version="1.0" encoding="utf-8"?>
<!-- Generator: Adobe Illustrator 27.9.0, SVG Export Plug-In . SVG Version: 6.00 Build 0)  -->
<svg version="1.1" id="Layer_1" xmlns="http://www.w3.org/2000/svg" xmlns:xlink="http://www.w3.org/1999/xlink" x="0px" y="0px"
	 viewBox="0 0 195 51" style="enable-background:new 0 0 195 51;" xml:space="preserve">
<style type="text/css">
	.st0{fill:#27AAE1;}
	.st1{fill:#FFFFFF;}
	.st2{fill:none;}
</style>
<g>
	<path class="st0" d="M7.9,2.5L8.2,5C7.9,5.4,7.3,5.7,6.5,6v13.7c0.8,0.3,1.4,0.7,1.7,1l-0.3,2.5h-7l-0.3-2.5c0.3-0.3,0.8-0.7,1.7-1
		V6C1.4,5.7,0.8,5.4,0.6,5l0.3-2.5H7.9z"/>
	<path class="st0" d="M10.2,8.2c1.1-0.2,2.1-0.4,3-0.4s1.6,0,2.2,0.1v1.5c0.5-0.4,1.2-0.8,2-1C18.2,8.1,19,8,19.8,8
		c2,0,3.3,0.5,4.1,1.4c0.8,0.9,1.2,2.5,1.2,4.8v5.8c0.8,0.3,1.3,0.6,1.7,1l-0.3,2.3h-6.9l-0.3-2.3c0.3-0.4,0.8-0.7,1.7-1v-5.9
		c0-1.1-0.2-1.8-0.5-2.2c-0.4-0.4-1-0.6-1.9-0.6s-1.8,0.3-2.7,1v7.7c0.8,0.3,1.3,0.6,1.7,1l-0.3,2.3h-6.9l-0.3-2.3
		c0.3-0.4,0.8-0.7,1.6-1v-8.3c-0.7-0.2-1.2-0.6-1.6-1L10.2,8.2z"/>
	<path class="st0" d="M29.4,7.6c0-2.1,0.5-3.6,1.4-4.7c0.9-1.1,2.3-1.6,4.3-1.6c2,0,3.7,0.5,5.1,1.6c0,0.1,0,0.3,0,0.6
		c0,0.3-0.1,0.7-0.2,1.3c-0.1,0.6-0.3,1.1-0.6,1.5h-2.5c-0.4-0.7-0.6-1.3-0.6-1.9c-0.2,0-0.4-0.1-0.6-0.1c-0.8,0-1.3,0.2-1.6,0.6
		c-0.3,0.4-0.5,1.2-0.5,2.3v1.1h4.6v2.8h-4.6v8.5c1.5,0.3,2.5,0.7,3.1,1.2l-0.3,2.3h-8.3l-0.3-2.3c0.3-0.4,0.8-0.7,1.6-1v-8.6h-1.3
		l-0.3-2.1c0.4-0.4,1-0.6,1.6-0.7V7.6z"/>
	<path class="st0" d="M46,23.5c-2.4,0-4.1-0.6-5.3-1.9c-1.1-1.3-1.7-3.2-1.7-5.7s0.6-4.5,1.9-5.8c1.3-1.4,3.1-2,5.5-2
		s4.1,0.6,5.3,1.8c1.2,1.2,1.7,3.1,1.7,5.6c0,2.6-0.6,4.5-1.9,5.9S48.4,23.5,46,23.5z M43.4,15.6c0,3.2,1,4.8,2.9,4.8
		c1,0,1.7-0.4,2.2-1.1c0.5-0.7,0.7-1.9,0.7-3.6c0-3.1-1-4.7-2.9-4.7c-1,0-1.7,0.3-2.1,1C43.6,12.8,43.4,13.9,43.4,15.6z"/>
	<path class="st0" d="M64,11.9c-1.5,0-2.6,0.3-3.2,0.9v6.9c1.6,0.3,2.7,0.7,3.3,1.3l-0.3,2.3h-8.6L55,20.9c0.3-0.4,0.8-0.7,1.6-1
		v-8.3c-0.7-0.2-1.2-0.6-1.6-1l0.3-2.3c1.1-0.2,2.1-0.4,3-0.4s1.6,0,2.2,0.1v1.9c0.5-0.5,1-1,1.8-1.3c0.7-0.3,1.4-0.5,2-0.5
		s1,0,1.2,0.1L65.3,12C64.9,11.9,64.5,11.9,64,11.9z"/>
	<path class="st0" d="M66.9,8.2C68,8,69,7.9,69.9,7.9s1.6,0,2.2,0.1v1.5c0.5-0.4,1.1-0.7,1.8-1c0.7-0.3,1.4-0.4,2-0.4
		c2.3,0,3.8,0.6,4.6,1.7c0.5-0.5,1.2-0.9,2-1.2C83.2,8.1,83.9,8,84.6,8c2.2,0,3.7,0.5,4.4,1.5c0.8,1,1.1,2.8,1.1,5.6v4.9
		c0.8,0.3,1.3,0.6,1.7,1l-0.3,2.3h-6.9l-0.3-2.3c0.3-0.4,0.8-0.7,1.7-1v-5.9c0-1.1-0.2-1.8-0.5-2.2s-0.9-0.5-1.8-0.5
		c-0.9,0-1.7,0.3-2.5,1c0.1,0.7,0.2,1.6,0.2,2.8v4.9c0.8,0.3,1.3,0.6,1.6,1l-0.3,2.3h-6.9l-0.3-2.3c0.3-0.4,0.8-0.7,1.7-1v-5.9
		c0-1.1-0.2-1.8-0.5-2.2s-0.9-0.5-1.8-0.5c-0.9,0-1.7,0.3-2.5,1v7.7c0.8,0.3,1.3,0.6,1.7,1l-0.3,2.3h-6.9l-0.3-2.3
		c0.3-0.4,0.8-0.7,1.6-1v-8.3c-0.7-0.2-1.2-0.6-1.6-1L66.9,8.2z"/>
	<path class="st0" d="M100.1,23.5c-2.4,0-4.2-0.6-5.4-1.9c-1.2-1.3-1.8-3.1-1.8-5.6c0-1.5,0.2-2.8,0.6-3.8c0.4-1.1,1-1.9,1.7-2.5
		c1.4-1.1,3-1.7,4.9-1.7c1.9,0,3.3,0.5,4.3,1.4c1,1,1.5,2.7,1.5,5.1c0,1.4-0.7,2.2-2.1,2.2h-6.5c0.1,1.3,0.4,2.2,1,2.7
		c0.6,0.5,1.5,0.8,2.7,0.8c0.7,0,1.3-0.1,2-0.2c0.6-0.2,1.1-0.3,1.3-0.5l0.4-0.2l0.9,2.4c-0.1,0.1-0.3,0.3-0.5,0.5s-0.8,0.5-1.7,0.8
		C102.3,23.3,101.3,23.5,100.1,23.5z M102,14c0-0.3,0.1-0.6,0.1-1c0-0.4-0.2-0.8-0.5-1.3c-0.3-0.5-0.9-0.7-1.7-0.7s-1.4,0.2-1.8,0.7
		c-0.4,0.5-0.7,1.3-0.8,2.4L102,14z"/>
	<path class="st0" d="M115.2,1.9c1.1-0.3,2.2-0.4,3.3-0.4s1.9,0,2.7,0.1v18c0.6,0.1,1.2,0.3,1.7,0.5v2.4c-1.2,0.6-2.7,1-4.6,1
		c-0.2-0.1-0.4-0.3-0.6-0.5c-0.2-0.3-0.3-0.5-0.3-0.8c-0.4,0.4-1,0.7-1.7,0.9s-1.4,0.4-2.1,0.4c-2.2,0-3.7-0.6-4.7-1.8
		c-1-1.2-1.5-3.1-1.5-5.7c0-3,0.7-5.1,2.2-6.4c1.3-1.1,2.9-1.6,4.8-1.6c0.8,0,1.7,0.1,2.5,0.3v-3c-0.9-0.3-1.6-0.6-2-1.1L115.2,1.9z
		 M114.2,20.4c1.1,0,2.1-0.3,2.8-1v-8c-0.8-0.2-1.7-0.3-2.6-0.3s-1.6,0.4-2,1.2c-0.4,0.8-0.6,2-0.6,3.6c0,1.6,0.2,2.8,0.6,3.5
		C112.7,20,113.3,20.4,114.2,20.4z"/>
</g>
<g>
	<path class="st1" d="M105.6,32.7c-0.6-0.3-1.5-0.4-2.7-0.4s-2.2,0.5-2.9,1.6c-0.7,1-1.1,2.9-1.1,5.5c0,2.6,0.4,4.4,1.1,5.5
		c0.7,1.1,1.8,1.6,3.2,1.6c2.1,0,4.1-0.3,5.8-1l1.1,2.7c-2.1,1.3-4.6,1.9-7.5,1.9c-2.9,0-4.9-0.8-6.2-2.4c-1.3-1.6-1.9-4.3-1.9-7.9
		s0.8-6.4,2.4-8.2s3.8-2.6,6.6-2.6c2.3,0,4.5,0.6,6.5,1.9c0,0.1,0,0.3,0,0.7c0,0.3-0.1,0.9-0.2,1.7c-0.1,0.8-0.3,1.5-0.6,2h-2.9
		C106,34.7,105.8,33.9,105.6,32.7z"/>
	<path class="st1" d="M111.3,28.6c1.1-0.3,2.2-0.4,3.1-0.4s1.8,0,2.4,0.1v7.5c0.5-0.3,1.1-0.6,1.9-0.8c0.8-0.2,1.5-0.3,2.1-0.3
		c2,0,3.3,0.5,4.1,1.4s1.1,2.4,1.1,4.4v6.1c0.8,0.3,1.3,0.6,1.6,1l-0.3,2.3h-6.9l-0.3-2.3c0.3-0.4,0.8-0.7,1.7-1v-5.9
		c0-1.1-0.2-1.8-0.5-2.2c-0.3-0.4-1-0.6-1.9-0.6c-0.9,0-1.8,0.3-2.7,1v7.7c0.8,0.3,1.3,0.6,1.7,1l-0.3,2.3h-6.9l-0.3-2.3
		c0.3-0.4,0.8-0.7,1.7-1V31.9c-0.7-0.2-1.2-0.6-1.7-1L111.3,28.6z"/>
	<path class="st1" d="M135.8,50.1c-2.4,0-4.1-0.6-5.3-1.9c-1.1-1.3-1.7-3.2-1.7-5.7s0.6-4.5,1.9-5.8c1.3-1.4,3.1-2,5.5-2
		s4.1,0.6,5.3,1.8c1.2,1.2,1.7,3.1,1.7,5.6c0,2.6-0.6,4.5-1.9,5.9S138.2,50.1,135.8,50.1z M133.2,42.2c0,3.2,1,4.8,2.9,4.8
		c1,0,1.7-0.4,2.2-1.1c0.5-0.7,0.7-1.9,0.7-3.6c0-3.1-1-4.7-2.9-4.7c-1,0-1.7,0.3-2.1,1C133.4,39.4,133.2,40.6,133.2,42.2z"/>
	<path class="st1" d="M145.1,34.9c1.1-0.3,2.2-0.4,3.1-0.4s1.8,0,2.4,0.1v12c0.8,0.3,1.3,0.6,1.6,1l-0.3,2.3h-6.9l-0.3-2.3
		c0.3-0.4,0.8-0.7,1.7-1v-8.3c-0.7-0.2-1.2-0.6-1.7-1L145.1,34.9z M148.5,32.8c-1.7,0-2.5-0.8-2.5-2.3c0-1.5,0.8-2.3,2.5-2.3
		s2.5,0.8,2.5,2.3C151.1,32,150.2,32.8,148.5,32.8z"/>
	<path class="st1" d="M160.6,37.7c-1.8,0-2.8,1.6-2.8,4.7c0,1.6,0.3,2.7,0.8,3.3s1.2,0.9,2.2,0.9c1.5,0,2.9-0.1,4-0.4l0.9,2.3
		c-0.6,0.4-1.5,0.8-2.6,1.1c-1.1,0.3-2.1,0.4-3.1,0.4c-4.3,0-6.5-2.5-6.5-7.5c0-2.9,0.8-5,2.2-6.3c1.3-1.1,3-1.7,4.9-1.7
		s3.5,0.4,4.8,1.1c0,0.2,0,0.4,0,0.6c0,1.1-0.3,2.2-0.8,3.2h-2.6c-0.3-0.5-0.5-1.1-0.5-1.8C161.3,37.7,161,37.7,160.6,37.7z"/>
	<path class="st1" d="M174.2,50.1c-2.4,0-4.2-0.6-5.4-1.9c-1.2-1.3-1.8-3.1-1.8-5.6c0-1.5,0.2-2.8,0.6-3.8c0.4-1.1,1-1.9,1.7-2.5
		c1.4-1.1,3-1.7,4.9-1.7c1.9,0,3.3,0.5,4.3,1.4c1,1,1.5,2.7,1.5,5.1c0,1.4-0.7,2.2-2.1,2.2h-6.5c0.1,1.3,0.4,2.2,1,2.7
		c0.6,0.5,1.5,0.8,2.7,0.8c0.7,0,1.3-0.1,2-0.2c0.6-0.2,1.1-0.3,1.3-0.5l0.4-0.2l0.9,2.4c-0.1,0.1-0.3,0.3-0.5,0.5s-0.8,0.5-1.7,0.8
		C176.5,49.9,175.4,50.1,174.2,50.1z M176.1,40.7c0-0.3,0.1-0.6,0.1-1c0-0.4-0.2-0.8-0.5-1.3c-0.3-0.5-0.9-0.7-1.7-0.7
		s-1.4,0.2-1.8,0.7c-0.4,0.5-0.7,1.3-0.8,2.4L176.1,40.7z"/>
	<path class="st1" d="M187.5,37.3c-1.3,0-2,0.4-2,1.2c0,0.7,0.7,1.3,2.1,1.7l2.4,0.6c2.4,0.6,3.7,2,3.7,4.2c0,1.5-0.5,2.7-1.6,3.7
		s-2.7,1.4-5,1.4c-2.3,0-4.1-0.3-5.4-1c0-0.2,0-0.4,0-0.7c0-1.1,0.2-2.1,0.7-3h2.5c0.3,0.5,0.4,1,0.5,1.5c0.4,0.1,1,0.2,1.7,0.2
		c1.8,0,2.6-0.5,2.6-1.5c0-0.3-0.1-0.6-0.4-0.8s-0.7-0.4-1.4-0.6l-2.4-0.7c-1.2-0.3-2.2-0.8-2.8-1.5c-0.7-0.7-1-1.7-1-3
		s0.5-2.4,1.6-3.2c1.1-0.8,2.6-1.3,4.5-1.3c2,0,3.6,0.3,5,0.9c0,0.2,0,0.4,0,0.6c0,1-0.2,2-0.7,2.9h-2.5c-0.3-0.5-0.4-0.9-0.5-1.4
		C188.6,37.4,188.1,37.3,187.5,37.3z"/>
</g>
<path class="st2" d="M30,40c0,0,0-0.1,0-0.1c0-0.4-0.2-0.8-0.5-1.3c-0.3-0.5-0.9-0.7-1.7-0.7s-1.4,0.2-1.8,0.7
	c-0.2,0.2-0.4,0.6-0.5,1"/>
<path class="st2" d="M64.5,50.1c-1.6,0-2.7-0.3-3.3-1c-0.6-0.7-0.9-1.7-0.9-3v-8.4H59l-0.3-1.8c0.3-0.4,1-0.8,2-1.1
	c0.2-1.6,0.8-2.7,1.7-3.3h2.2v3.8h4.3v2.5h-4.3v7.6c0,0.6,0.1,1.1,0.3,1.4c0.2,0.3,0.6,0.4,1.3,0.4s1.4-0.2,2.2-0.5l0.9,2.3
	C67.7,49.7,66.1,50.1,64.5,50.1z M86.4,50.1h-6.9l-0.3-2.3c0.3-0.4,0.8-0.7,1.7-1v-5.9c0-1.1-0.2-1.8-0.5-2.2
	c-0.3-0.4-1-0.6-1.9-0.6c-0.9,0-1.8,0.3-2.7,1v7.7c0.8,0.3,1.3,0.6,1.7,1l-0.3,2.3h-6.9l-0.3-2.3c0.3-0.4,0.8-0.7,1.7-1V32.1
	c-0.7-0.2-1.2-0.6-1.7-1l0.3-2.3c1.1-0.3,2.2-0.4,3.1-0.4s1.8,0,2.4,0.1V36c0.5-0.3,1.1-0.6,1.9-0.8c0.8-0.2,1.5-0.3,2.1-0.3
	c2,0,3.3,0.5,4.1,1.4s1.1,2.4,1.1,4.4v6.1c0.8,0.3,1.3,0.6,1.6,1L86.4,50.1z"/>
<path class="st2" d="M39.6,45.6c0,0.5,0.2,0.9,0.5,1.2c0.3,0.3,0.8,0.5,1.4,0.5c1,0,1.8-0.3,2.4-0.9v-2.5h-2.1
	C40.3,43.9,39.6,44.5,39.6,45.6z"/>
<g>
	<path class="st0" d="M6.6,40.6h6.6v0.7c1-0.3,2.1-0.5,3.3-0.8c0.4-0.1,0.7-0.1,1-0.2v-7.4c0.8-0.3,1.3-0.6,1.7-1l-0.3-2.5h-7
		l-0.3,2.5c0.3,0.4,0.8,0.7,1.7,1v4.7H6.6v-4.7c0.8-0.3,1.3-0.6,1.7-1l-0.3-2.5h-7l-0.3,2.5c0.3,0.4,0.8,0.7,1.7,1v13.3
		c1.6-0.9,3-1.7,4.3-2.4V40.6z"/>
	<path class="st1" d="M0.6,47.6l0.3,2.5h7l0.3-2.5c-0.3-0.3-0.9-0.7-1.7-1v-2.7c-1.3,0.7-2.7,1.4-4.3,2.4v0.4
		C1.4,46.9,0.9,47.3,0.6,47.6z"/>
	<path class="st1" d="M13.2,41.3v5.3c-0.8,0.3-1.4,0.7-1.7,1l0.3,2.5h7l0.3-2.5c-0.3-0.3-0.9-0.7-1.7-1v-6.3c-0.3,0.1-0.7,0.1-1,0.2
		C15.3,40.8,14.2,41.1,13.2,41.3z"/>
</g>
<g>
	<path class="st0" d="M25.6,39.6c0.1-0.4,0.3-0.7,0.5-1c0.4-0.5,1-0.7,1.8-0.7s1.3,0.2,1.7,0.7c0.3,0.5,0.5,0.9,0.5,1.3
		c0,0,0,0.1,0,0.1c1.3,0.2,2.5,0.4,3.8,0.5c-0.1-2-0.6-3.4-1.5-4.2c-1-0.9-2.4-1.4-4.3-1.4c-1.9,0-3.5,0.6-4.9,1.7
		c-0.7,0.6-1.3,1.4-1.7,2.5c-0.1,0.2-0.2,0.5-0.2,0.8C22.8,39.6,24.3,39.6,25.6,39.6z"/>
	<path class="st1" d="M22.7,48.4c1.2,1.3,3,1.9,5.4,1.9c1.2,0,2.2-0.2,3.2-0.5c0.9-0.3,1.5-0.6,1.7-0.8s0.4-0.4,0.5-0.5l-0.9-2.4
		l-0.4,0.2c-0.3,0.2-0.7,0.3-1.3,0.5c-0.6,0.2-1.3,0.2-2,0.2c-1.2,0-2.1-0.3-2.7-0.8c-0.6-0.5-0.9-1.4-1-2.7h6.5
		c1.4,0,2.1-0.7,2.1-2.2c0-0.3,0-0.6,0-0.9c-1.3-0.1-2.5-0.3-3.8-0.5c0,0.4,0,0.7-0.1,0.9l-4.7,0.2c0.1-0.6,0.2-1.1,0.3-1.5
		c-1.3,0-2.7,0-4.3,0.2c-0.3,0.9-0.4,1.9-0.4,3.1C20.9,45.3,21.5,47.1,22.7,48.4z"/>
</g>
<g>
	<path class="st0" d="M46.6,36.1c-0.9-0.8-2.5-1.2-4.6-1.2c-2.1,0-4.1,0.5-6,1.5c0,0.3,0,0.7,0,1c0,1.1,0.2,2,0.5,2.7h2.9
		c0.2-0.5,0.3-1.1,0.4-2c0.4-0.1,0.9-0.2,1.5-0.2c1.5,0,2.3,0.6,2.5,1.9c1.4-0.3,2.8-0.7,4.1-1.2C47.7,37.5,47.3,36.6,46.6,36.1z"/>
	<path class="st1" d="M43.8,41.7h-3.3c-1.8,0-3.1,0.4-4,1.2c-0.9,0.8-1.3,1.8-1.3,3.2c0,1.3,0.5,2.4,1.4,3.2c1,0.8,2.1,1.2,3.4,1.2
		c2.3,0,3.8-0.6,4.7-1.9c0.1,0.7,0.3,1.4,0.5,1.9c1.9,0,3.4-0.2,4.4-0.7V47c-0.4-0.2-1-0.4-1.6-0.5v-6.4c0-0.6-0.1-1.1-0.1-1.5
		c-1.3,0.5-2.7,0.9-4.1,1.2c0,0.1,0,0.3,0,0.4V41.7z M43.8,46.4c-0.6,0.6-1.4,0.9-2.4,0.9c-0.6,0-1.1-0.2-1.4-0.5
		c-0.3-0.3-0.5-0.7-0.5-1.2c0-1.1,0.7-1.6,2.2-1.6h2.1V46.4z"/>
</g>
<g>
	<path class="st0" d="M56.2,28.5c-0.7-0.1-1.5-0.1-2.4-0.1s-2,0.1-3.1,0.4l-0.3,2.3c0.4,0.4,1,0.8,1.7,1v4.7
		c1.5-0.7,2.9-1.5,4.2-2.3V28.5z"/>
	<path class="st1" d="M50.4,47.8l0.3,2.3h6.9l0.3-2.3c-0.3-0.4-0.9-0.7-1.7-1V34.5c-1.3,0.8-2.7,1.6-4.2,2.3v10
		C51.2,47.1,50.7,47.4,50.4,47.8z"/>
</g>
<path class="st1" d="M66.1,47c-0.7,0-1.1-0.1-1.3-0.4c-0.2-0.3-0.3-0.8-0.3-1.4v-7.6h4.3v-2.5h-4.3v-3.8h-2.2
	c-0.9,0.6-1.5,1.7-1.7,3.3c-1,0.4-1.7,0.8-2,1.1l0.3,1.8h1.3v8.4c0,1.3,0.3,2.3,0.9,3c0.6,0.7,1.7,1,3.3,1c1.6,0,3.2-0.4,4.7-1.2
	l-0.9-2.3C67.5,46.9,66.8,47,66.1,47z"/>
<path class="st1" d="M85.1,40.7c0-2-0.4-3.4-1.1-4.4s-2.1-1.4-4.1-1.4c-0.6,0-1.3,0.1-2.1,0.3c-0.8,0.2-1.4,0.5-1.9,0.8v-7.5
	c-0.7-0.1-1.5-0.1-2.4-0.1s-2,0.1-3.1,0.4l-0.3,2.3c0.4,0.4,1,0.8,1.7,1v14.6c-0.8,0.3-1.4,0.6-1.7,1l0.3,2.3h6.9l0.3-2.3
	c-0.3-0.4-0.9-0.7-1.7-1v-7.7c0.9-0.6,1.8-1,2.7-1c0.9,0,1.6,0.2,1.9,0.6c0.3,0.4,0.5,1.1,0.5,2.2v5.9c-0.8,0.3-1.4,0.6-1.7,1
	l0.3,2.3h6.9l0.3-2.3c-0.3-0.4-0.9-0.7-1.6-1V40.7z"/>
</svg>
