<?xml version="1.0" encoding="UTF-8"?>
<svg width="512px" height="512px" viewBox="0 0 512 512" version="1.1" xmlns="http://www.w3.org/2000/svg" xmlns:xlink="http://www.w3.org/1999/xlink">
    <title>threads</title>
    <g id="Page-1" stroke="none" stroke-width="1" fill="none" fill-rule="evenodd">
        <g id="threads" fill="#000000">
            <path d="M256,0 C397.29,0 512,114.71 512,256 C512,397.29 397.29,512 256,512 C114.71,512 0,397.29 0,256 C0,114.71 114.71,0 256,0 Z M324.99815,245.117553 C323.752577,244.526148 322.507005,243.934743 321.195876,243.40905 C318.966957,202.339245 296.546656,178.814461 258.982818,178.551614 C258.786149,178.551614 258.655036,178.551614 258.458366,178.551614 C235.972509,178.551614 217.223368,188.145521 205.750991,205.690541 L226.466825,219.884266 C235.054718,206.80764 248.559344,203.982037 258.523923,203.982037 C258.655036,203.982037 258.786149,203.982037 258.851705,203.982037 C271.241872,204.047749 280.550886,207.661892 286.647634,214.693042 C291.039915,219.818554 293.989955,226.915416 295.432197,235.852206 C284.418715,234.012278 272.553,233.420873 259.900608,234.143702 C224.106794,236.180764 201.162041,257.142792 202.669839,286.187358 C203.456516,300.906776 210.798837,313.589131 223.320116,321.868804 C233.874703,328.899955 247.510441,332.316962 261.670632,331.528422 C280.354216,330.477035 295.038858,323.380173 305.265662,310.237835 C313.066878,300.315371 317.983611,287.43588 320.146973,271.205093 C329.062649,276.593452 335.683849,283.690314 339.289453,292.232833 C345.517314,306.755116 345.845096,330.542747 326.440391,349.993406 C309.461274,367.012733 289.007666,374.372442 258.130584,374.569577 C223.910124,374.30673 198.015332,363.332879 181.167328,341.845157 C165.368226,321.737381 157.239228,292.758527 156.977002,255.565712 C157.304785,218.438608 165.433783,189.394043 181.167328,169.286266 C198.015332,147.798545 223.910124,136.824693 258.130584,136.561846 C292.61327,136.824693 318.966957,147.864256 336.470526,169.41769 C345.058419,179.997271 351.48295,193.271032 355.744118,208.77899 L380,202.273533 C374.821042,183.217144 366.692043,166.723511 355.678562,153.121191 C333.258261,125.456571 300.480042,111.328558 258.261697,111 L258.065028,111 C215.912239,111.262847 183.527359,125.522283 161.697066,153.252615 C142.292361,177.960209 132.327782,212.327422 132,255.368577 L132,255.5 L132,255.631423 C132.327782,298.672578 142.357917,333.039791 161.697066,357.747385 C183.461803,385.477717 215.912239,399.737153 258.065028,400 L258.261697,400 C295.759979,399.737153 322.179223,389.8804 343.94396,368.129832 C372.395453,339.61096 371.54322,303.863802 362.168649,281.916098 C355.416336,266.342428 342.567275,253.594361 324.99815,245.117553 Z M260.029256,305.930313 C244.25493,306.788391 227.82059,299.725742 227.028574,284.544347 C226.434562,273.323316 235.014739,260.716158 260.953275,259.264024 C263.923337,259.066006 266.827397,259 269.731457,259 C279.169652,259 287.947834,259.924085 296,261.640243 C293.029939,299.065682 275.473576,305.13824 260.029256,305.930313 Z" id="Shape"></path>
        </g>
    </g>
</svg>