<?xml version="1.0" encoding="UTF-8"?>
<svg width="512px" height="512px" viewBox="0 0 512 512" version="1.1" xmlns="http://www.w3.org/2000/svg" xmlns:xlink="http://www.w3.org/1999/xlink">
    <title>twitter</title>
    <g id="Page-1" stroke="none" stroke-width="1" fill="none" fill-rule="evenodd">
        <g id="twitter" fill="#000000">
            <path d="M256,0 C397.29,0 512,114.71 512,256 C512,397.29 397.29,512 256,512 C114.71,512 0,397.29 0,256 C0,114.71 114.71,0 256,0 Z M198.674307,112 L115,112 L224.70521,271.562471 L115,399 L139.790288,399 L235.710809,287.569009 L312.325693,399 L396,399 L282.227081,233.524913 L282.233169,233.524913 L386.841742,112 L362.052858,112 L271.221248,217.518375 L198.674307,112 Z M187.015399,130 L258.274284,232.216578 L269.37189,248.134105 L362,381 L323.984601,381 L248.397304,272.58104 L248.397304,272.574944 L237.299698,256.657417 L149,130 L187.015399,130 Z" id="Shape"></path>
        </g>
    </g>
</svg>