<svg clip-rule="evenodd" fill-rule="evenodd" stroke-linejoin="round" stroke-miterlimit="2" viewBox="0 0 512 512" xmlns="http://www.w3.org/2000/svg"><path d="m256 0c141.29 0 256 114.71 256 256s-114.71 256-256 256-256-114.71-256-256 114.71-256 256-256zm143.233 205.824c-1.335 29.198-21.728 69.178-61.183 119.928-40.787 52.999-75.299 79.505-103.521 79.505-17.491 0-32.29-16.131-44.377-48.418-8.071-29.596-16.135-59.188-24.213-88.783-8.977-32.266-18.605-48.422-28.904-48.422-2.245 0-10.098 4.722-23.545 14.128l-14.111-18.176c14.807-13.007 29.409-26.011 43.776-39.039 19.747-17.055 34.581-26.029 44.461-26.936 23.341-2.245 37.711 13.714 43.104 47.869 5.83 36.853 9.867 59.775 12.129 68.742 6.739 30.582 14.146 45.855 22.227 45.855 6.272 0 15.709-9.918 28.291-29.761 12.555-19.826 19.283-34.917 20.193-45.288 1.796-17.117-4.94-25.693-20.193-25.693-7.185 0-14.591 1.65-22.209 4.916 14.747-48.284 42.918-71.732 84.49-70.397 30.827.907 45.367 20.895 43.585 59.97z"/></svg>